<svg xmlns="http://www.w3.org/2000/svg">
    <symbol id="icon-checkmark" viewBox="0 0 31 24">
        <g clip-path="url(#clip0)">
            <path d="M28.4138 1.65506C26.4828 -0.551832 23.1724 -0.551832 21.2414 1.3792L11.0345 11.5861L8.82758 9.3792C6.89655 7.44817 3.5862 7.44817 1.65517 9.3792H1.37931C-0.551726 11.3102 -0.551726 14.6206 1.37931 16.5516L7.44827 22.6206C8.55172 23.724 9.93103 23.9999 11.0345 23.9999C12.4138 23.9999 13.5172 23.4482 14.6207 22.6206L28.4138 8.82748C30.3448 6.89644 30.3448 3.5861 28.4138 1.65506Z" />
        </g>
        <defs>
            <clipPath id="clip0">
                <rect width="30.069" height="24" fill="white" />
            </clipPath>
        </defs>
    </symbol>
    <symbol id="icon-feature-battery_life" viewBox="0 0 48 48">
        <path d="M32.2832 3.99995H15.7168C13.8879 3.99995 12.4001 5.48777 12.4001 7.31671V44.6831C12.4001 46.5121 13.8879 47.9999 15.7168 47.9999H32.2833C34.1122 47.9999 35.6 46.5121 35.6 44.6831V7.31683C35.6 5.48777 34.1122 3.99995 32.2832 3.99995ZM34 44.6832C34 45.6296 33.2296 46.4 32.2832 46.4H15.7168C14.7704 46.4 14 45.6296 14 44.6832V7.31683C14 6.37042 14.7704 5.60003 15.7168 5.60003H32.2833C33.2297 5.60003 34.0001 6.37042 34.0001 7.31683V44.6832H34Z" fill="black" />
        <path d="M28.4 0H19.6001C19.1583 0 18.8 0.358242 18.8 0.800039V4.8C18.8 5.2418 19.1583 5.60004 19.6001 5.60004H28.4C28.8418 5.60004 29.2001 5.2418 29.2001 4.8V0.800039C29.2 0.358242 28.8418 0 28.4 0ZM27.6 3.99996H20.4V1.59996H27.6V3.99996Z" fill="black" />
        <path d="M29.8746 21.9702C29.7278 21.7392 29.4734 21.5998 29.2 21.5998H24.4V14.3998C24.4 14.0248 24.1393 13.7002 23.7734 13.619C23.404 13.5381 23.0336 13.7217 22.875 14.0616L17.275 26.0616C17.1594 26.3092 17.1785 26.5992 17.3254 26.8296C17.4722 27.0606 17.7266 27.2 18 27.2H22.8V34.4C22.8 34.775 23.0606 35.0996 23.4266 35.1808C23.4848 35.1939 23.543 35.2001 23.6004 35.2001C23.9058 35.2001 24.1914 35.0243 24.325 34.7382L29.925 22.7382C30.0406 22.4906 30.0215 22.2006 29.8746 21.9702ZM22.8 25.6H19.2563L22.8 18.0057V25.6ZM24.4 30.7942V23.2H27.9437L24.4 30.7942Z" fill="black" />
    </symbol>
    <symbol id="icon-feature-fast_fuel" viewBox="0 0 28 48">
        <path d="M26.8 10.4H24.4V2.4C24.4 1.03997 23.36 0 22 0C20.6399 0 19.6 1.03997 19.6 2.4V10.4H8.40003V2.4C8.40003 1.03997 7.36006 0 6.00003 0C4.64 0 3.60003 1.03997 3.60003 2.4V10.4H1.20003C0.720032 10.4 0.400063 10.7199 0.400063 11.1999V17.2799C0.400063 21.2799 1.92003 25.1199 4.64009 28.0799C7.0401 30.7999 8.40013 34.3199 8.40013 37.9199V39.9999C8.40013 42.2399 10.1601 44 12.4002 44H13.2001V47.1999C13.2001 47.6799 13.5201 47.9999 14.0001 47.9999C14.4801 47.9999 14.8001 47.6799 14.8001 47.1999V44H15.6C17.84 44 19.6001 42.24 19.6001 39.9999V38C19.6001 34.32 20.88 30.8799 23.3601 28.16C26.0801 25.2 27.6001 21.2799 27.6001 17.28V11.2C27.6 10.72 27.28 10.4 26.8 10.4ZM21.2 2.4C21.2 1.92 21.52 1.60003 22 1.60003C22.48 1.60003 22.7999 1.92 22.7999 2.4V10.4H21.2V2.4ZM5.19997 2.4C5.19997 1.99997 5.51994 1.60003 5.99994 1.60003C6.47994 1.60003 6.79991 1.92 6.79991 2.4V10.4H5.19988V2.4H5.19997ZM26 17.2C26 20.88 24.72 24.3201 22.24 27.04C19.52 30 18 33.92 18 37.92V40C18 41.3601 16.9601 42.4 15.6 42.4H12.4001C11.04 42.4 10.0001 41.3601 10.0001 40V38.0001C10.0001 34 8.4801 30.0801 5.76003 27.1201C3.36003 24.4 2 20.88 2 17.28V12H4.4H7.59997H20.3999H23.6H26V17.2Z" fill="black" />
        <path d="M17.2 20.8H12.7199L16.96 16.56C17.2799 16.24 17.2799 15.76 16.96 15.44C16.64 15.1199 16.16 15.12 15.8399 15.44L10.24 21.0399C9.99997 21.2799 9.92 21.5999 10.0799 21.92C10.1599 22.2399 10.48 22.4 10.7999 22.4H15.28L11.0399 26.64C10.72 26.96 10.72 27.44 11.0399 27.76C11.2 27.9201 11.3599 28 11.5999 28C11.8399 28 11.9999 27.9201 12.1599 27.76L17.7599 22.1601C17.9999 21.9201 18.0798 21.6001 17.9199 21.28C17.84 20.96 17.52 20.8 17.2 20.8Z" fill="black" />
    </symbol>
    <symbol id="icon-feature-sound" viewBox="0 0 50 50">
        <path d="M14.9708 0C6.71605 0 0 7.27579 0 16.2591C0.0317662 18.342 0.602868 20.3811 1.6576 22.1775C2.15599 23.0277 2.58274 23.918 2.93344 24.839C3.16602 25.5159 2.94278 26.2658 2.37786 26.7053C1.39499 27.4911 0.825441 28.6832 0.831709 29.9415C0.827764 31.3243 1.51136 32.6185 2.65565 33.3948C3.06703 33.6743 3.31726 34.1359 3.32684 34.6332V41.5854C3.32684 46.1715 6.68444 49.9025 10.8122 49.9025C14.94 49.9025 18.2976 46.1715 18.2976 41.5854C18.285 38.1601 19.7745 34.9014 22.373 32.6695C27.2442 28.6051 30.0244 22.5619 29.9415 16.2183C29.9415 7.27579 23.2255 0 14.9708 0ZM21.2917 31.4062C18.3233 33.9534 16.621 37.674 16.6342 41.5854C16.6342 45.2541 14.0218 48.2391 10.8122 48.2391C7.60265 48.2391 4.99025 45.2541 4.99025 41.5854V34.6332C4.97678 33.6031 4.47131 32.6417 3.63041 32.0466C2.91983 31.5825 2.49254 30.7902 2.49513 29.9415C2.48942 29.1765 2.83983 28.4523 3.44327 27.982C4.55062 27.0949 4.97343 25.603 4.49622 24.2668C4.11317 23.2593 3.64662 22.2856 3.10144 21.3558C2.18489 19.7969 1.68934 18.0265 1.66342 16.2183C1.66342 8.19316 7.63342 1.66342 14.9708 1.66342C22.3081 1.66342 28.2781 8.19316 28.2781 16.2183C28.3542 22.0745 25.788 27.6533 21.2917 31.4062Z" fill="black" />
        <path d="M14.9707 4.15854C10.3356 4.15854 6.38335 7.44545 4.84885 12.0398C4.83803 12.0673 4.83055 12.0939 4.82223 12.123C4.38372 13.4571 4.15915 14.8522 4.15686 16.2566C4.15686 17.2546 4.15686 20.307 6.06397 22.2141C6.39032 22.5293 6.90906 22.5248 7.22988 22.204C7.5507 21.8832 7.5552 21.3644 7.24001 21.0381C6.55671 20.2785 6.11793 19.3308 5.9808 18.3184C6.11471 18.3101 6.24695 18.2993 6.38584 18.2993C10.2034 18.2976 13.3073 21.7908 13.3073 26.0824C13.3073 26.4808 13.2882 26.855 13.2574 27.2243C12.8433 27.6664 12.4028 28.0831 11.9383 28.4719C9.51592 30.4557 8.17332 33.4674 8.31707 36.5952C8.31707 37.0545 8.68944 37.4269 9.14878 37.4269C9.60812 37.4269 9.98049 37.0545 9.98049 36.5952C9.8374 33.958 10.9646 31.4116 13.0129 29.7444C15.9473 27.4922 17.6072 23.9568 17.4659 20.2604C17.4659 15.0539 13.5485 10.8122 8.73293 10.8122C8.17973 10.8137 7.62816 10.8722 7.08697 10.9869C8.53264 7.91802 11.5799 5.92167 14.9707 5.82196C20.0151 5.82196 24.1195 10.502 24.1195 16.2549C24.1849 20.787 22.2194 25.1106 18.7617 28.0411C18.6469 28.14 18.5196 28.2465 18.3816 28.3621C16.7265 29.7377 13.284 32.6038 12.4806 39.8305C12.432 40.2859 12.7607 40.6949 13.2158 40.7454C13.2462 40.7498 13.2767 40.7526 13.3073 40.7537C13.731 40.7533 14.0866 40.4346 14.1332 40.0135C14.8626 33.4513 17.8426 30.972 19.4445 29.6404C19.5917 29.5173 19.7273 29.4042 19.8487 29.2994C23.6768 26.0566 25.8537 21.2714 25.783 16.2549C25.783 9.58461 20.9324 4.15854 14.9707 4.15854ZM8.73293 12.4756C12.6311 12.4756 15.8025 15.9688 15.8025 20.2604C15.8402 21.8342 15.5277 23.3966 14.8876 24.8348C14.3295 20.2105 10.7349 16.6342 6.38751 16.6342C6.19538 16.6342 6.01074 16.6483 5.82527 16.6616C5.82527 16.5019 5.82527 16.363 5.82527 16.2549C5.82557 15.1427 5.98465 14.0361 6.29768 12.9688C7.0689 12.6452 7.89657 12.4776 8.73293 12.4756Z" fill="black" />
        <path d="M41.5854 19.1293C41.6492 16.508 42.7609 14.0216 44.6719 12.2261C44.904 12.02 45.002 11.7017 44.926 11.4007C44.8501 11.0997 44.6128 10.8661 44.3106 10.7948C44.0084 10.7235 43.6917 10.8264 43.4892 11.0617C41.268 13.1648 39.983 16.071 39.922 19.1293C39.983 22.1876 41.268 25.0937 43.4892 27.1969C43.6917 27.4322 44.0084 27.5351 44.3106 27.4638C44.6128 27.3925 44.8501 27.1589 44.926 26.8579C45.002 26.5569 44.904 26.2386 44.6719 26.0325C42.7609 24.237 41.6492 21.7506 41.5854 19.1293Z" fill="black" />
        <path d="M47.1288 14.3495C46.964 14.2028 46.7477 14.1275 46.5275 14.1403C46.3072 14.1531 46.1011 14.2529 45.9544 14.4177C43.4561 17.062 43.4561 21.1966 45.9544 23.8409C46.152 24.0629 46.453 24.1626 46.744 24.1024C47.0351 24.0423 47.2719 23.8315 47.3653 23.5494C47.4587 23.2673 47.3946 22.9567 47.197 22.7348C45.2597 20.7215 45.2597 17.5371 47.197 15.5239C47.3437 15.3591 47.4189 15.1428 47.4061 14.9225C47.3933 14.7023 47.2936 14.4962 47.1288 14.3495Z" fill="black" />
        <path d="M49.6887 16.9095C49.3814 16.5683 48.8557 16.5407 48.5144 16.8479C47.8154 17.3986 47.4074 18.2394 47.4074 19.1293C47.4074 20.0192 47.8154 20.86 48.5144 21.4107C48.7341 21.6165 49.0479 21.6875 49.3348 21.5964C49.6217 21.5052 49.837 21.2662 49.8976 20.9713C49.9583 20.6764 49.8548 20.3717 49.6272 20.1748C49.3047 19.9185 49.1032 19.5399 49.0708 19.1293C49.1032 18.7187 49.3047 18.3401 49.6272 18.0838C49.9684 17.7765 49.9959 17.2508 49.6887 16.9095Z" fill="black" />
        <path d="M37.4269 19.1293C37.4269 15.4698 39.0662 11.9334 42.1676 8.91259C42.3804 8.70459 42.466 8.39889 42.3923 8.11064C42.3185 7.82239 42.0966 7.59539 41.8101 7.51514C41.5236 7.43489 41.216 7.51358 41.0032 7.72158C37.5766 11.0617 35.7635 15.0065 35.7635 19.1293C35.7635 23.2521 37.5766 27.1969 41.0032 30.537C41.3321 30.8586 41.8594 30.8526 42.1809 30.5237C42.5025 30.1948 42.4965 29.6676 42.1676 29.346C39.0662 26.3253 37.4269 22.7888 37.4269 19.1293Z" fill="black" />
        <path d="M33.2684 19.1293C33.2684 14.5599 35.1996 10.1585 38.855 6.40416C39.063 6.19111 39.1415 5.88328 39.061 5.59662C38.9805 5.30997 38.7532 5.08804 38.4647 5.01443C38.1762 4.94082 37.8703 5.02672 37.6623 5.23977C33.7 9.31514 31.6049 14.1183 31.6049 19.1293C31.6049 24.1403 33.7 28.9435 37.6623 33.0188C37.9839 33.3482 38.5115 33.3545 38.8408 33.033C39.1702 32.7114 39.1765 32.1838 38.855 31.8544C35.1996 28.1001 33.2684 23.6987 33.2684 19.1293Z" fill="black" />
    </symbol>
    <symbol id="icon-gamburger" viewBox="0 0 27 24">
        <g clip-path="url(#clip0)">
            <path d="M24 0H2.06335C0.868778 0 0 0.868778 0 2.06335V2.38914C0 3.47511 0.868778 4.34389 2.06335 4.34389H24.1086C25.1946 4.34389 26.1719 3.47511 26.1719 2.28054V2.06335C26.0633 0.868778 25.1946 0 24 0Z" fill="#0D0E0F" />
            <path d="M24 9.77374H2.06335C0.868778 9.77374 0 10.7511 0 11.8371V12.1629C0 13.2489 0.868778 14.2262 2.06335 14.2262H24.1086C25.1946 14.2262 26.1719 13.3575 26.1719 12.1629V11.8371C26.0633 10.7511 25.1946 9.77374 24 9.77374Z" fill="#0D0E0F" />
            <path d="M24 19.5475H2.06335C0.977376 19.5475 0 20.4163 0 21.6109V21.9367C0 23.0226 0.868778 24 2.06335 24H24.1086C25.1946 24 26.1719 23.1312 26.1719 21.9367V21.6109C26.0633 20.5249 25.1946 19.5475 24 19.5475Z" fill="#0D0E0F" />
        </g>
        <defs>
            <clipPath id="clip0">
                <rect width="26.0633" height="24" fill="white" />
            </clipPath>
        </defs>
    </symbol>
    <symbol id="icon-phone" viewBox="0 0 24 24">
        <g clip-path="url(#clip0)">
            <path d="M23.9481 18.5956C23.8802 18.3911 23.4483 18.0898 22.6528 17.6924C22.4372 17.5671 22.1301 17.3969 21.7328 17.181C21.335 16.965 20.974 16.7661 20.6504 16.5842C20.3261 16.4024 20.0222 16.2263 19.7384 16.0561C19.693 16.022 19.551 15.9227 19.3123 15.7576C19.0735 15.5929 18.872 15.4707 18.707 15.391C18.5422 15.3118 18.3802 15.2719 18.2211 15.2719C17.9939 15.2719 17.7101 15.4339 17.3693 15.7576C17.0285 16.0816 16.7159 16.4336 16.432 16.8147C16.148 17.1955 15.8468 17.5475 15.5289 17.8714C15.2106 18.1954 14.949 18.3572 14.7447 18.3572C14.6422 18.3572 14.5143 18.3286 14.361 18.2722C14.2078 18.2154 14.0913 18.1668 14.0113 18.1276C13.932 18.0875 13.7959 18.0082 13.6026 17.8885C13.409 17.7692 13.3013 17.7038 13.2786 17.6924C11.7218 16.8286 10.3867 15.8399 9.273 14.7266C8.15962 13.6127 7.17084 12.2777 6.30725 10.7208C6.29591 10.6981 6.23042 10.5901 6.11119 10.397C5.99179 10.2038 5.91221 10.0676 5.87245 9.98781C5.83268 9.90835 5.78439 9.79181 5.72767 9.63844C5.67095 9.48506 5.64248 9.3573 5.64248 9.25491C5.64248 9.05049 5.80445 8.789 6.12833 8.47079C6.45215 8.15276 6.80451 7.8515 7.18505 7.56762C7.56589 7.28374 7.91789 6.97114 8.24183 6.63036C8.56565 6.2894 8.72756 6.00546 8.72756 5.77824C8.72756 5.61925 8.6878 5.45716 8.60834 5.29244C8.52882 5.12737 8.40667 4.92594 8.24183 4.68719C8.07693 4.44856 7.97753 4.30665 7.94338 4.26098C7.77311 3.97709 7.59717 3.67315 7.41514 3.34927C7.23311 3.02545 7.03442 2.66449 6.81842 2.26682C6.6026 1.86932 6.43227 1.5624 6.30713 1.34651C5.90964 0.551227 5.60856 0.119224 5.40397 0.0512838C5.32438 0.0171941 5.20498 0 5.04605 0C4.73907 0 4.33859 0.0567167 3.84432 0.170508C3.34987 0.284121 2.96079 0.403286 2.67667 0.52848C2.10849 0.766989 1.50628 1.46013 0.869857 2.60766C0.290332 3.6756 0.000598907 4.73262 0.000598907 5.77794C0.000598907 6.08451 0.0204796 6.38278 0.060241 6.67281C0.100002 6.96254 0.171047 7.28929 0.273436 7.65299C0.375645 8.01658 0.458093 8.28667 0.520422 8.46255C0.58281 8.63855 0.699289 8.95384 0.869797 9.40852C1.04007 9.86309 1.14245 10.1414 1.17654 10.2436C1.57422 11.3573 2.0458 12.3515 2.59118 13.2266C3.4885 14.681 4.71304 16.1841 6.26409 17.7353C7.8152 19.2864 9.31802 20.5108 10.7726 21.4085C11.6475 21.9538 12.6421 22.4254 13.7556 22.8233C13.8579 22.8573 14.1362 22.9594 14.5906 23.1303C15.0451 23.3007 15.3605 23.4171 15.5365 23.4796C15.7126 23.5422 15.9828 23.6247 16.346 23.7271C16.7101 23.8295 17.0366 23.9005 17.3263 23.9406C17.6162 23.9798 17.9145 24.0001 18.2212 24.0001C19.2664 24.0001 20.3235 23.7101 21.3916 23.1307C22.539 22.4945 23.232 21.8922 23.4706 21.3236C23.5961 21.0397 23.715 20.6506 23.8286 20.1561C23.9426 19.6619 23.9992 19.2615 23.9992 18.9545C23.9995 18.795 23.9824 18.6759 23.9481 18.5956Z" fill="black" />
        </g>
        <defs>
            <clipPath id="clip0">
                <rect width="24" height="24" fill="white" />
            </clipPath>
        </defs>
    </symbol>
    <symbol id="icon-reason-battery_life" viewBox="0 0 32 60">
        <path d="M28.536 4H22V0H10V4H3.464C1.554 4 0 5.554 0 7.464V56.536C0 58.446 1.554 60 3.464 60H28.536C30.446 60 32 58.446 32 56.536V7.464C32 5.554 30.446 4 28.536 4ZM2 19H30V31H2V19ZM2 33H30V45H2V33ZM12 2H20V4H12V2ZM3.464 6H10H22H28.536C29.344 6 30 6.656 30 7.464V17H2V7.464C2 6.656 2.656 6 3.464 6ZM28.536 58H3.464C2.656 58 2 57.344 2 56.536V47H30V56.536C30 57.344 29.344 58 28.536 58Z" fill="black" />
    </symbol>
    <symbol id="icon-reason-fast_fuel" viewBox="0 0 58 60">
        <path d="M30.634 37.989C31.675 37.908 32.624 37.377 33.24 36.53L42.603 23.586C42.89 23.189 42.847 22.641 42.499 22.293C42.151 21.946 41.603 21.903 41.206 22.189L28.26 31.555C27.416 32.169 26.885 33.118 26.804 34.159C26.723 35.2 27.1 36.219 27.837 36.956C28.508 37.628 29.413 38 30.354 38C30.447 38 30.54 37.996 30.634 37.989ZM28.798 34.315C28.833 33.858 29.067 33.441 29.435 33.173L37.332 27.46L31.621 35.355C31.351 35.726 30.934 35.959 30.477 35.995C30.022 36.025 29.575 35.867 29.25 35.542C28.928 35.219 28.762 34.771 28.798 34.315Z" fill="black" />
        <path d="M53.034 19.564C53.024 19.543 53.024 19.521 53.013 19.5C53.001 19.48 52.982 19.469 52.969 19.45C51.958 17.716 50.762 16.103 49.404 14.641L51.552 12.494L52.966 13.908L57.208 9.665L52.966 5.423L48.723 9.665L50.138 11.08L47.99 13.227C46.528 11.869 44.916 10.672 43.181 9.661C43.162 9.648 43.151 9.629 43.131 9.617C43.11 9.605 43.088 9.606 43.067 9.595C39.974 7.813 36.499 6.626 32.794 6.191V5H34.294C35.673 5 36.794 3.879 36.794 2.5C36.794 1.121 35.672 0 34.293 0H25.293C23.914 0 22.793 1.121 22.793 2.5C22.793 3.879 23.914 5 25.293 5H26.793V6.156C25.713 6.271 24.635 6.447 23.569 6.691C23.031 6.814 22.694 7.351 22.818 7.889C22.941 8.427 23.478 8.765 24.016 8.64C24.936 8.429 25.865 8.27 26.796 8.163L27.869 8.08C28.197 8.055 28.499 8.037 28.793 8.023V10C28.793 10.553 29.24 11 29.793 11C30.346 11 30.793 10.553 30.793 10V8.03C34.554 8.203 38.098 9.213 41.249 10.875L40.263 12.582C39.987 13.061 40.151 13.672 40.629 13.948C40.786 14.039 40.958 14.082 41.128 14.082C41.474 14.082 41.81 13.903 41.995 13.582L42.978 11.879C46.107 13.864 48.765 16.522 50.75 19.651L49.047 20.634C48.57 20.91 48.406 21.521 48.683 22C48.869 22.321 49.204 22.5 49.55 22.5C49.72 22.5 49.892 22.457 50.049 22.366L51.756 21.38C53.441 24.576 54.454 28.178 54.605 31.999H52.63C52.077 31.999 51.63 32.446 51.63 32.999C51.63 33.552 52.077 33.999 52.63 33.999H54.605C54.454 37.82 53.441 41.422 51.756 44.618L50.049 43.632C49.571 43.356 48.959 43.518 48.683 43.998C48.407 44.477 48.571 45.088 49.049 45.364L50.752 46.347C48.767 49.476 46.109 52.134 42.98 54.119L41.997 52.416C41.72 51.936 41.107 51.773 40.631 52.05C40.152 52.326 39.988 52.938 40.265 53.416L41.251 55.123C38.1 56.785 34.556 57.795 30.795 57.968V56C30.795 55.447 30.348 55 29.795 55C29.242 55 28.795 55.447 28.795 56V57.976C27.198 57.921 25.596 57.721 24.019 57.359C23.481 57.23 22.944 57.572 22.821 58.11C22.697 58.648 23.034 59.185 23.572 59.308C25.568 59.768 27.607 60 29.63 60C29.679 60 29.726 59.997 29.775 59.996C29.782 59.996 29.787 60 29.793 60C29.801 60 29.808 59.995 29.816 59.995C34.623 59.962 39.133 58.664 43.035 56.422C43.066 56.408 43.099 56.401 43.129 56.383C43.149 56.371 43.16 56.352 43.179 56.339C47.218 53.985 50.593 50.614 52.952 46.578C52.971 46.551 52.995 46.53 53.012 46.5C53.024 46.479 53.023 46.457 53.033 46.436C55.317 42.476 56.63 37.89 56.63 33C56.63 28.11 55.317 23.524 53.034 19.564ZM52.965 8.251L54.379 9.665L52.965 11.08L51.55 9.665L52.965 8.251ZM28.793 6.021V3H25.293C25.018 3 24.793 2.775 24.793 2.5C24.793 2.225 25.018 2 25.293 2H34.293C34.568 2 34.793 2.225 34.793 2.5C34.793 2.775 34.568 3 34.293 3H30.793V6.021C30.445 6.007 30.113 6 29.793 6C29.765 6 29.733 6.002 29.705 6.002C29.68 6.002 29.655 6 29.63 6C29.466 6 29.302 6.011 29.138 6.014C29.022 6.017 28.913 6.016 28.793 6.021Z" fill="black" />
        <path d="M20.793 14H15.793C15.24 14 14.793 14.447 14.793 15C14.793 15.553 15.24 16 15.793 16H20.793C21.346 16 21.793 15.553 21.793 15C21.793 14.447 21.346 14 20.793 14Z" fill="black" />
        <path d="M20.793 21H10.793C10.24 21 9.793 21.447 9.793 22C9.793 22.553 10.24 23 10.793 23H20.793C21.346 23 21.793 22.553 21.793 22C21.793 21.447 21.346 21 20.793 21Z" fill="black" />
        <path d="M20.793 28H5.793C5.24 28 4.793 28.447 4.793 29C4.793 29.553 5.24 30 5.793 30H20.793C21.346 30 21.793 29.553 21.793 29C21.793 28.447 21.346 28 20.793 28Z" fill="black" />
        <path d="M20.793 35H1.793C1.24 35 0.792999 35.447 0.792999 36C0.792999 36.553 1.24 37 1.793 37H20.793C21.346 37 21.793 36.553 21.793 36C21.793 35.447 21.346 35 20.793 35Z" fill="black" />
        <path d="M20.793 42H7.793C7.24 42 6.793 42.447 6.793 43C6.793 43.553 7.24 44 7.793 44H20.793C21.346 44 21.793 43.553 21.793 43C21.793 42.447 21.346 42 20.793 42Z" fill="black" />
        <path d="M20.793 49H13.793C13.24 49 12.793 49.447 12.793 50C12.793 50.553 13.24 51 13.793 51H20.793C21.346 51 21.793 50.553 21.793 50C21.793 49.447 21.346 49 20.793 49Z" fill="black" />
    </symbol>
    <symbol id="icon-reason-sound" viewBox="0 0 53 47">
        <path d="M28.404 0.413002C27.428 -0.138998 26.273 -0.120998 25.314 0.457002C25.268 0.484002 25.224 0.516002 25.184 0.550002L11.634 12.013H1C0.447 12.013 0 12.46 0 13.013V32.013C0 32.279 0.105 32.533 0.293 32.72C0.481 32.907 0.734 33.013 1 33.013L11.61 33.008L25.153 45.448C25.203 45.494 25.257 45.534 25.314 45.568C25.806 45.865 26.351 46.014 26.896 46.014C27.413 46.013 27.929 45.88 28.404 45.612C29.403 45.048 30 44.018 30 42.857V3.169C30 2.008 29.403 0.978002 28.404 0.413002ZM28 42.857C28 43.288 27.783 43.667 27.421 43.872C27.266 43.959 26.873 44.127 26.421 43.898L13 31.569V27.013C13 26.46 12.553 26.013 12 26.013C11.447 26.013 11 26.46 11 27.013V31.009L2 31.013V14.013H11V18.013C11 18.566 11.447 19.013 12 19.013C12.553 19.013 13 18.566 13 18.013V13.477L26.405 2.137C26.866 1.895 27.265 2.067 27.421 2.155C27.783 2.36 28 2.739 28 3.169V42.857Z" fill="black" />
        <path d="M38.797 4.066C38.274 3.889 37.706 4.169 37.528 4.692C37.351 5.214 37.631 5.783 38.154 5.961C45.255 8.372 50.026 15.024 50.026 22.514C50.026 29.997 45.264 36.65 38.177 39.068C37.655 39.246 37.375 39.814 37.554 40.338C37.696 40.753 38.084 41.015 38.5 41.015C38.607 41.015 38.716 40.998 38.823 40.961C46.719 38.268 52.025 30.855 52.025 22.515C52.026 14.166 46.71 6.753 38.797 4.066Z" fill="black" />
        <path d="M43.026 22.513C43.026 16.541 39.017 11.211 33.277 9.55101C32.744 9.40001 32.193 9.70301 32.039 10.235C31.886 10.765 32.191 11.32 32.723 11.473C37.612 12.886 41.027 17.426 41.027 22.513C41.027 27.6 37.612 32.14 32.723 33.553C32.192 33.706 31.886 34.261 32.039 34.791C32.166 35.229 32.565 35.514 33 35.514C33.092 35.514 33.185 35.501 33.277 35.475C39.018 33.815 43.026 28.485 43.026 22.513Z" fill="black" />
    </symbol>
</svg>