<svg width="48" height="48" viewBox="0 0 48 48" fill="none" xmlns="http://www.w3.org/2000/svg">
<path d="M32.2832 3.99995H15.7168C13.8879 3.99995 12.4001 5.48777 12.4001 7.31671V44.6831C12.4001 46.5121 13.8879 47.9999 15.7168 47.9999H32.2833C34.1122 47.9999 35.6 46.5121 35.6 44.6831V7.31683C35.6 5.48777 34.1122 3.99995 32.2832 3.99995ZM34 44.6832C34 45.6296 33.2296 46.4 32.2832 46.4H15.7168C14.7704 46.4 14 45.6296 14 44.6832V7.31683C14 6.37042 14.7704 5.60003 15.7168 5.60003H32.2833C33.2297 5.60003 34.0001 6.37042 34.0001 7.31683V44.6832H34Z" fill="black"/>
<path d="M28.4 0H19.6001C19.1583 0 18.8 0.358242 18.8 0.800039V4.8C18.8 5.2418 19.1583 5.60004 19.6001 5.60004H28.4C28.8418 5.60004 29.2001 5.2418 29.2001 4.8V0.800039C29.2 0.358242 28.8418 0 28.4 0ZM27.6 3.99996H20.4V1.59996H27.6V3.99996Z" fill="black"/>
<path d="M29.8746 21.9702C29.7278 21.7392 29.4734 21.5998 29.2 21.5998H24.4V14.3998C24.4 14.0248 24.1393 13.7002 23.7734 13.619C23.404 13.5381 23.0336 13.7217 22.875 14.0616L17.275 26.0616C17.1594 26.3092 17.1785 26.5992 17.3254 26.8296C17.4722 27.0606 17.7266 27.2 18 27.2H22.8V34.4C22.8 34.775 23.0606 35.0996 23.4266 35.1808C23.4848 35.1939 23.543 35.2001 23.6004 35.2001C23.9058 35.2001 24.1914 35.0243 24.325 34.7382L29.925 22.7382C30.0406 22.4906 30.0215 22.2006 29.8746 21.9702ZM22.8 25.6H19.2563L22.8 18.0057V25.6ZM24.4 30.7942V23.2H27.9437L24.4 30.7942Z" fill="black"/>
</svg>
