<svg width="53" height="53" viewBox="0 0 53 47" fill="none" xmlns="http://www.w3.org/2000/svg">
    <path d="M28.404 0.413002C27.428 -0.138998 26.273 -0.120998 25.314 0.457002C25.268 0.484002 25.224 0.516002 25.184 0.550002L11.634 12.013H1C0.447 12.013 0 12.46 0 13.013V32.013C0 32.279 0.105 32.533 0.293 32.72C0.481 32.907 0.734 33.013 1 33.013L11.61 33.008L25.153 45.448C25.203 45.494 25.257 45.534 25.314 45.568C25.806 45.865 26.351 46.014 26.896 46.014C27.413 46.013 27.929 45.88 28.404 45.612C29.403 45.048 30 44.018 30 42.857V3.169C30 2.008 29.403 0.978002 28.404 0.413002ZM28 42.857C28 43.288 27.783 43.667 27.421 43.872C27.266 43.959 26.873 44.127 26.421 43.898L13 31.569V27.013C13 26.46 12.553 26.013 12 26.013C11.447 26.013 11 26.46 11 27.013V31.009L2 31.013V14.013H11V18.013C11 18.566 11.447 19.013 12 19.013C12.553 19.013 13 18.566 13 18.013V13.477L26.405 2.137C26.866 1.895 27.265 2.067 27.421 2.155C27.783 2.36 28 2.739 28 3.169V42.857Z" fill="black" />
    <path d="M38.797 4.066C38.274 3.889 37.706 4.169 37.528 4.692C37.351 5.214 37.631 5.783 38.154 5.961C45.255 8.372 50.026 15.024 50.026 22.514C50.026 29.997 45.264 36.65 38.177 39.068C37.655 39.246 37.375 39.814 37.554 40.338C37.696 40.753 38.084 41.015 38.5 41.015C38.607 41.015 38.716 40.998 38.823 40.961C46.719 38.268 52.025 30.855 52.025 22.515C52.026 14.166 46.71 6.753 38.797 4.066Z" fill="black" />
    <path d="M43.026 22.513C43.026 16.541 39.017 11.211 33.277 9.55101C32.744 9.40001 32.193 9.70301 32.039 10.235C31.886 10.765 32.191 11.32 32.723 11.473C37.612 12.886 41.027 17.426 41.027 22.513C41.027 27.6 37.612 32.14 32.723 33.553C32.192 33.706 31.886 34.261 32.039 34.791C32.166 35.229 32.565 35.514 33 35.514C33.092 35.514 33.185 35.501 33.277 35.475C39.018 33.815 43.026 28.485 43.026 22.513Z" fill="black" />
</svg>    