<svg width="28" height="48" viewBox="0 0 28 48" fill="none" xmlns="http://www.w3.org/2000/svg">
<path d="M26.8 10.4H24.4V2.4C24.4 1.03997 23.36 0 22 0C20.6399 0 19.6 1.03997 19.6 2.4V10.4H8.40003V2.4C8.40003 1.03997 7.36006 0 6.00003 0C4.64 0 3.60003 1.03997 3.60003 2.4V10.4H1.20003C0.720032 10.4 0.400063 10.7199 0.400063 11.1999V17.2799C0.400063 21.2799 1.92003 25.1199 4.64009 28.0799C7.0401 30.7999 8.40013 34.3199 8.40013 37.9199V39.9999C8.40013 42.2399 10.1601 44 12.4002 44H13.2001V47.1999C13.2001 47.6799 13.5201 47.9999 14.0001 47.9999C14.4801 47.9999 14.8001 47.6799 14.8001 47.1999V44H15.6C17.84 44 19.6001 42.24 19.6001 39.9999V38C19.6001 34.32 20.88 30.8799 23.3601 28.16C26.0801 25.2 27.6001 21.2799 27.6001 17.28V11.2C27.6 10.72 27.28 10.4 26.8 10.4ZM21.2 2.4C21.2 1.92 21.52 1.60003 22 1.60003C22.48 1.60003 22.7999 1.92 22.7999 2.4V10.4H21.2V2.4ZM5.19997 2.4C5.19997 1.99997 5.51994 1.60003 5.99994 1.60003C6.47994 1.60003 6.79991 1.92 6.79991 2.4V10.4H5.19988V2.4H5.19997ZM26 17.2C26 20.88 24.72 24.3201 22.24 27.04C19.52 30 18 33.92 18 37.92V40C18 41.3601 16.9601 42.4 15.6 42.4H12.4001C11.04 42.4 10.0001 41.3601 10.0001 40V38.0001C10.0001 34 8.4801 30.0801 5.76003 27.1201C3.36003 24.4 2 20.88 2 17.28V12H4.4H7.59997H20.3999H23.6H26V17.2Z" fill="black"/>
<path d="M17.2 20.8H12.7199L16.96 16.56C17.2799 16.24 17.2799 15.76 16.96 15.44C16.64 15.1199 16.16 15.12 15.8399 15.44L10.24 21.0399C9.99997 21.2799 9.92 21.5999 10.0799 21.92C10.1599 22.2399 10.48 22.4 10.7999 22.4H15.28L11.0399 26.64C10.72 26.96 10.72 27.44 11.0399 27.76C11.2 27.9201 11.3599 28 11.5999 28C11.8399 28 11.9999 27.9201 12.1599 27.76L17.7599 22.1601C17.9999 21.9201 18.0798 21.6001 17.9199 21.28C17.84 20.96 17.52 20.8 17.2 20.8Z" fill="black"/>
</svg>
